<mxfile host="app.diagrams.net" modified="2023-11-07T08:53:39.785Z" agent="Mozilla/5.0 (Windows NT 10.0; Win64; x64) AppleWebKit/537.36 (KHTML, like Gecko) Chrome/93.0.4577.63 Safari/537.36 Edg/93.0.961.47" etag="Ei5ZxyMisu9dsxKCWUpa" version="22.0.8" type="github">
  <diagram name="第 1 页" id="hYPSlPm09kYANWNBESSa">
    <mxGraphModel dx="1290" dy="580" grid="1" gridSize="10" guides="1" tooltips="1" connect="1" arrows="1" fold="1" page="1" pageScale="1" pageWidth="827" pageHeight="1169" math="0" shadow="0">
      <root>
        <mxCell id="0" />
        <mxCell id="1" parent="0" />
        <mxCell id="pT_tMdGWYm5MswHN4T52-10" style="edgeStyle=orthogonalEdgeStyle;rounded=0;orthogonalLoop=1;jettySize=auto;html=1;exitX=0.5;exitY=1;exitDx=0;exitDy=0;" edge="1" parent="1" source="pT_tMdGWYm5MswHN4T52-1" target="pT_tMdGWYm5MswHN4T52-2">
          <mxGeometry relative="1" as="geometry" />
        </mxCell>
        <mxCell id="pT_tMdGWYm5MswHN4T52-1" value="开始" style="rounded=1;whiteSpace=wrap;html=1;" vertex="1" parent="1">
          <mxGeometry x="205" y="60" width="120" height="60" as="geometry" />
        </mxCell>
        <mxCell id="pT_tMdGWYm5MswHN4T52-11" style="edgeStyle=orthogonalEdgeStyle;rounded=0;orthogonalLoop=1;jettySize=auto;html=1;entryX=0.5;entryY=0;entryDx=0;entryDy=0;" edge="1" parent="1" source="pT_tMdGWYm5MswHN4T52-2" target="pT_tMdGWYm5MswHN4T52-3">
          <mxGeometry relative="1" as="geometry" />
        </mxCell>
        <mxCell id="pT_tMdGWYm5MswHN4T52-2" value="从参数修改的特征开始遍历特征容器" style="rounded=0;whiteSpace=wrap;html=1;" vertex="1" parent="1">
          <mxGeometry x="205" y="160" width="120" height="60" as="geometry" />
        </mxCell>
        <mxCell id="pT_tMdGWYm5MswHN4T52-12" style="edgeStyle=orthogonalEdgeStyle;rounded=0;orthogonalLoop=1;jettySize=auto;html=1;entryX=0.5;entryY=0;entryDx=0;entryDy=0;" edge="1" parent="1" source="pT_tMdGWYm5MswHN4T52-3" target="pT_tMdGWYm5MswHN4T52-4">
          <mxGeometry relative="1" as="geometry" />
        </mxCell>
        <mxCell id="pT_tMdGWYm5MswHN4T52-19" value="否" style="edgeLabel;html=1;align=center;verticalAlign=middle;resizable=0;points=[];" vertex="1" connectable="0" parent="pT_tMdGWYm5MswHN4T52-12">
          <mxGeometry x="0.216" y="-3" relative="1" as="geometry">
            <mxPoint x="-17" as="offset" />
          </mxGeometry>
        </mxCell>
        <mxCell id="pT_tMdGWYm5MswHN4T52-20" style="edgeStyle=orthogonalEdgeStyle;rounded=0;orthogonalLoop=1;jettySize=auto;html=1;entryX=0;entryY=0.5;entryDx=0;entryDy=0;" edge="1" parent="1" source="pT_tMdGWYm5MswHN4T52-3" target="pT_tMdGWYm5MswHN4T52-18">
          <mxGeometry relative="1" as="geometry" />
        </mxCell>
        <mxCell id="pT_tMdGWYm5MswHN4T52-21" value="是" style="edgeLabel;html=1;align=center;verticalAlign=middle;resizable=0;points=[];" vertex="1" connectable="0" parent="pT_tMdGWYm5MswHN4T52-20">
          <mxGeometry x="-0.3143" y="3" relative="1" as="geometry">
            <mxPoint x="-9" y="-12" as="offset" />
          </mxGeometry>
        </mxCell>
        <mxCell id="pT_tMdGWYm5MswHN4T52-3" value="特征容器是&lt;br&gt;否遍历完成？" style="rhombus;whiteSpace=wrap;html=1;" vertex="1" parent="1">
          <mxGeometry x="220" y="240" width="90" height="90" as="geometry" />
        </mxCell>
        <mxCell id="pT_tMdGWYm5MswHN4T52-13" style="edgeStyle=orthogonalEdgeStyle;rounded=0;orthogonalLoop=1;jettySize=auto;html=1;entryX=0.5;entryY=0;entryDx=0;entryDy=0;" edge="1" parent="1" source="pT_tMdGWYm5MswHN4T52-4" target="pT_tMdGWYm5MswHN4T52-5">
          <mxGeometry relative="1" as="geometry" />
        </mxCell>
        <mxCell id="pT_tMdGWYm5MswHN4T52-4" value="获取特征对象指针并执行重建虚函数" style="rounded=0;whiteSpace=wrap;html=1;" vertex="1" parent="1">
          <mxGeometry x="205" y="350" width="120" height="60" as="geometry" />
        </mxCell>
        <mxCell id="pT_tMdGWYm5MswHN4T52-23" style="edgeStyle=orthogonalEdgeStyle;rounded=0;orthogonalLoop=1;jettySize=auto;html=1;entryX=0.5;entryY=0;entryDx=0;entryDy=0;" edge="1" parent="1" source="pT_tMdGWYm5MswHN4T52-5" target="pT_tMdGWYm5MswHN4T52-6">
          <mxGeometry relative="1" as="geometry" />
        </mxCell>
        <mxCell id="pT_tMdGWYm5MswHN4T52-24" value="否" style="edgeLabel;html=1;align=center;verticalAlign=middle;resizable=0;points=[];" vertex="1" connectable="0" parent="pT_tMdGWYm5MswHN4T52-23">
          <mxGeometry x="0.3455" y="-4" relative="1" as="geometry">
            <mxPoint x="-16" as="offset" />
          </mxGeometry>
        </mxCell>
        <mxCell id="pT_tMdGWYm5MswHN4T52-28" style="edgeStyle=orthogonalEdgeStyle;rounded=0;orthogonalLoop=1;jettySize=auto;html=1;entryX=0;entryY=0.5;entryDx=0;entryDy=0;exitX=0;exitY=0.5;exitDx=0;exitDy=0;" edge="1" parent="1" source="pT_tMdGWYm5MswHN4T52-5" target="pT_tMdGWYm5MswHN4T52-3">
          <mxGeometry relative="1" as="geometry">
            <mxPoint x="205" y="510" as="sourcePoint" />
            <mxPoint x="200" y="285" as="targetPoint" />
            <Array as="points">
              <mxPoint x="180" y="510" />
              <mxPoint x="180" y="285" />
            </Array>
          </mxGeometry>
        </mxCell>
        <mxCell id="pT_tMdGWYm5MswHN4T52-29" value="是" style="edgeLabel;html=1;align=center;verticalAlign=middle;resizable=0;points=[];" vertex="1" connectable="0" parent="pT_tMdGWYm5MswHN4T52-28">
          <mxGeometry x="-0.8181" y="-2" relative="1" as="geometry">
            <mxPoint x="3" y="-8" as="offset" />
          </mxGeometry>
        </mxCell>
        <mxCell id="pT_tMdGWYm5MswHN4T52-5" value="重建函数&lt;br&gt;是否成功？" style="rhombus;whiteSpace=wrap;html=1;" vertex="1" parent="1">
          <mxGeometry x="225" y="470" width="80" height="80" as="geometry" />
        </mxCell>
        <mxCell id="pT_tMdGWYm5MswHN4T52-26" style="edgeStyle=orthogonalEdgeStyle;rounded=0;orthogonalLoop=1;jettySize=auto;html=1;entryX=0;entryY=0.5;entryDx=0;entryDy=0;" edge="1" parent="1" source="pT_tMdGWYm5MswHN4T52-6" target="pT_tMdGWYm5MswHN4T52-25">
          <mxGeometry relative="1" as="geometry" />
        </mxCell>
        <mxCell id="pT_tMdGWYm5MswHN4T52-6" value="复原修改特征参数" style="rounded=0;whiteSpace=wrap;html=1;" vertex="1" parent="1">
          <mxGeometry x="205" y="610" width="120" height="60" as="geometry" />
        </mxCell>
        <mxCell id="pT_tMdGWYm5MswHN4T52-16" style="edgeStyle=orthogonalEdgeStyle;rounded=0;orthogonalLoop=1;jettySize=auto;html=1;entryX=0.5;entryY=1;entryDx=0;entryDy=0;" edge="1" parent="1" source="pT_tMdGWYm5MswHN4T52-7" target="pT_tMdGWYm5MswHN4T52-8">
          <mxGeometry relative="1" as="geometry" />
        </mxCell>
        <mxCell id="pT_tMdGWYm5MswHN4T52-38" value="否" style="edgeLabel;html=1;align=center;verticalAlign=middle;resizable=0;points=[];" vertex="1" connectable="0" parent="pT_tMdGWYm5MswHN4T52-16">
          <mxGeometry x="-0.2" y="2" relative="1" as="geometry">
            <mxPoint x="18" as="offset" />
          </mxGeometry>
        </mxCell>
        <mxCell id="pT_tMdGWYm5MswHN4T52-34" style="edgeStyle=orthogonalEdgeStyle;rounded=0;orthogonalLoop=1;jettySize=auto;html=1;entryX=0;entryY=0.5;entryDx=0;entryDy=0;" edge="1" parent="1" source="pT_tMdGWYm5MswHN4T52-7" target="pT_tMdGWYm5MswHN4T52-33">
          <mxGeometry relative="1" as="geometry">
            <mxPoint x="490" y="540" as="targetPoint" />
          </mxGeometry>
        </mxCell>
        <mxCell id="pT_tMdGWYm5MswHN4T52-37" value="是" style="edgeLabel;html=1;align=center;verticalAlign=middle;resizable=0;points=[];" vertex="1" connectable="0" parent="pT_tMdGWYm5MswHN4T52-34">
          <mxGeometry x="-0.3429" y="-1" relative="1" as="geometry">
            <mxPoint x="-2" y="-11" as="offset" />
          </mxGeometry>
        </mxCell>
        <mxCell id="pT_tMdGWYm5MswHN4T52-7" value="特征容器是&lt;br style=&quot;border-color: var(--border-color);&quot;&gt;否遍历完成？" style="rhombus;whiteSpace=wrap;html=1;" vertex="1" parent="1">
          <mxGeometry x="366" y="470" width="96" height="90" as="geometry" />
        </mxCell>
        <mxCell id="pT_tMdGWYm5MswHN4T52-39" style="edgeStyle=orthogonalEdgeStyle;rounded=0;orthogonalLoop=1;jettySize=auto;html=1;entryX=0;entryY=0.5;entryDx=0;entryDy=0;" edge="1" parent="1" source="pT_tMdGWYm5MswHN4T52-8" target="pT_tMdGWYm5MswHN4T52-7">
          <mxGeometry relative="1" as="geometry">
            <Array as="points">
              <mxPoint x="346" y="380" />
              <mxPoint x="346" y="515" />
            </Array>
          </mxGeometry>
        </mxCell>
        <mxCell id="pT_tMdGWYm5MswHN4T52-8" value="获取特征对象指针并执行重建虚函数" style="rounded=0;whiteSpace=wrap;html=1;" vertex="1" parent="1">
          <mxGeometry x="354" y="350" width="120" height="60" as="geometry" />
        </mxCell>
        <mxCell id="pT_tMdGWYm5MswHN4T52-18" value="结束" style="rounded=1;whiteSpace=wrap;html=1;" vertex="1" parent="1">
          <mxGeometry x="500" y="255" width="120" height="60" as="geometry" />
        </mxCell>
        <mxCell id="pT_tMdGWYm5MswHN4T52-27" style="edgeStyle=orthogonalEdgeStyle;rounded=0;orthogonalLoop=1;jettySize=auto;html=1;" edge="1" parent="1" source="pT_tMdGWYm5MswHN4T52-25" target="pT_tMdGWYm5MswHN4T52-7">
          <mxGeometry relative="1" as="geometry" />
        </mxCell>
        <mxCell id="pT_tMdGWYm5MswHN4T52-25" value="从参数修改的特征开始遍历特征容器" style="rounded=0;whiteSpace=wrap;html=1;" vertex="1" parent="1">
          <mxGeometry x="354" y="610" width="120" height="60" as="geometry" />
        </mxCell>
        <mxCell id="pT_tMdGWYm5MswHN4T52-36" style="edgeStyle=orthogonalEdgeStyle;rounded=0;orthogonalLoop=1;jettySize=auto;html=1;entryX=0.5;entryY=1;entryDx=0;entryDy=0;" edge="1" parent="1" source="pT_tMdGWYm5MswHN4T52-33" target="pT_tMdGWYm5MswHN4T52-18">
          <mxGeometry relative="1" as="geometry" />
        </mxCell>
        <mxCell id="pT_tMdGWYm5MswHN4T52-33" value="弹出提示对话框提示模型重建失败" style="rounded=0;whiteSpace=wrap;html=1;" vertex="1" parent="1">
          <mxGeometry x="500" y="485" width="120" height="60" as="geometry" />
        </mxCell>
      </root>
    </mxGraphModel>
  </diagram>
</mxfile>
